<mxfile host="app.diagrams.net" modified="2021-01-06T11:49:09.712Z" agent="5.0 (Windows)" etag="0oHAQZLn5E1DZC-pxFIW" version="14.1.8" type="github">
  <diagram id="Pw_FQFGpAdDdGR9PmW3k" name="Page-1">
    <mxGraphModel dx="723" dy="376" grid="1" gridSize="10" guides="1" tooltips="1" connect="1" arrows="1" fold="1" page="1" pageScale="1" pageWidth="827" pageHeight="1169" math="0" shadow="0">
      <root>
        <mxCell id="0" />
        <mxCell id="1" parent="0" />
        <mxCell id="ApNMNNl2spRxYkzGzLZT-29" value="" style="rounded=0;whiteSpace=wrap;html=1;" vertex="1" parent="1">
          <mxGeometry x="20" y="340" width="600" height="140" as="geometry" />
        </mxCell>
        <mxCell id="ApNMNNl2spRxYkzGzLZT-1" value="EmployeeHome&#xa;PageView" style="shape=umlLifeline;perimeter=lifelinePerimeter;container=1;collapsible=0;recursiveResize=0;rounded=0;shadow=0;strokeWidth=1;" vertex="1" parent="1">
          <mxGeometry x="180" y="80" width="100" height="390" as="geometry" />
        </mxCell>
        <mxCell id="ApNMNNl2spRxYkzGzLZT-2" value="" style="points=[];perimeter=orthogonalPerimeter;rounded=0;shadow=0;strokeWidth=1;" vertex="1" parent="ApNMNNl2spRxYkzGzLZT-1">
          <mxGeometry x="45" y="70" width="10" height="300" as="geometry" />
        </mxCell>
        <mxCell id="ApNMNNl2spRxYkzGzLZT-3" value="CalculateSalary&#xa;Controller" style="shape=umlLifeline;perimeter=lifelinePerimeter;container=1;collapsible=0;recursiveResize=0;rounded=0;shadow=0;strokeWidth=1;" vertex="1" parent="1">
          <mxGeometry x="364" y="80" width="100" height="400" as="geometry" />
        </mxCell>
        <mxCell id="ApNMNNl2spRxYkzGzLZT-4" value="" style="points=[];perimeter=orthogonalPerimeter;rounded=0;shadow=0;strokeWidth=1;" vertex="1" parent="ApNMNNl2spRxYkzGzLZT-3">
          <mxGeometry x="45" y="80" width="10" height="300" as="geometry" />
        </mxCell>
        <mxCell id="ApNMNNl2spRxYkzGzLZT-5" value="Employee" style="shape=umlActor;verticalLabelPosition=bottom;verticalAlign=top;html=1;outlineConnect=0;" vertex="1" parent="1">
          <mxGeometry x="50" y="70" width="30" height="60" as="geometry" />
        </mxCell>
        <mxCell id="ApNMNNl2spRxYkzGzLZT-6" value="Database" style="shape=umlLifeline;perimeter=lifelinePerimeter;container=1;collapsible=0;recursiveResize=0;rounded=0;shadow=0;strokeWidth=1;" vertex="1" parent="1">
          <mxGeometry x="530" y="80" width="100" height="400" as="geometry" />
        </mxCell>
        <mxCell id="ApNMNNl2spRxYkzGzLZT-7" value="" style="points=[];perimeter=orthogonalPerimeter;rounded=0;shadow=0;strokeWidth=1;" vertex="1" parent="ApNMNNl2spRxYkzGzLZT-6">
          <mxGeometry x="45" y="80" width="10" height="300" as="geometry" />
        </mxCell>
        <mxCell id="ApNMNNl2spRxYkzGzLZT-8" value="" style="points=[];perimeter=orthogonalPerimeter;rounded=0;shadow=0;strokeWidth=1;" vertex="1" parent="1">
          <mxGeometry x="60" y="150" width="10" height="330" as="geometry" />
        </mxCell>
        <mxCell id="ApNMNNl2spRxYkzGzLZT-10" value="click on show salary button" style="verticalAlign=bottom;endArrow=block;shadow=0;strokeWidth=1;" edge="1" parent="1" source="ApNMNNl2spRxYkzGzLZT-8" target="ApNMNNl2spRxYkzGzLZT-2">
          <mxGeometry relative="1" as="geometry">
            <mxPoint x="140" y="470" as="sourcePoint" />
            <mxPoint x="265" y="400" as="targetPoint" />
            <Array as="points">
              <mxPoint x="100" y="200" />
            </Array>
          </mxGeometry>
        </mxCell>
        <mxCell id="ApNMNNl2spRxYkzGzLZT-12" value="new CalculateSalaryController()" style="verticalAlign=bottom;endArrow=block;shadow=0;strokeWidth=1;" edge="1" parent="1" source="ApNMNNl2spRxYkzGzLZT-2" target="ApNMNNl2spRxYkzGzLZT-4">
          <mxGeometry relative="1" as="geometry">
            <mxPoint x="240" y="210" as="sourcePoint" />
            <mxPoint x="395" y="210" as="targetPoint" />
            <Array as="points">
              <mxPoint x="270" y="210" />
            </Array>
          </mxGeometry>
        </mxCell>
        <mxCell id="ApNMNNl2spRxYkzGzLZT-13" value="getEmployeeName()" style="verticalAlign=bottom;endArrow=block;shadow=0;strokeWidth=1;" edge="1" parent="1" source="ApNMNNl2spRxYkzGzLZT-4" target="ApNMNNl2spRxYkzGzLZT-7">
          <mxGeometry relative="1" as="geometry">
            <mxPoint x="400" y="229.57999999999998" as="sourcePoint" />
            <mxPoint x="574" y="229.57999999999998" as="targetPoint" />
            <Array as="points">
              <mxPoint x="435" y="229.57999999999998" />
            </Array>
          </mxGeometry>
        </mxCell>
        <mxCell id="ApNMNNl2spRxYkzGzLZT-14" value="employeeName" style="verticalAlign=bottom;endArrow=open;dashed=1;endSize=8;shadow=0;strokeWidth=1;" edge="1" parent="1" source="ApNMNNl2spRxYkzGzLZT-7" target="ApNMNNl2spRxYkzGzLZT-4">
          <mxGeometry relative="1" as="geometry">
            <mxPoint x="490" y="310" as="targetPoint" />
            <mxPoint x="580" y="330" as="sourcePoint" />
            <Array as="points">
              <mxPoint x="530" y="260" />
            </Array>
          </mxGeometry>
        </mxCell>
        <mxCell id="ApNMNNl2spRxYkzGzLZT-20" value="selectScheduleExcelFilePopup()" style="verticalAlign=bottom;endArrow=block;shadow=0;strokeWidth=1;" edge="1" parent="1" source="ApNMNNl2spRxYkzGzLZT-4" target="ApNMNNl2spRxYkzGzLZT-2">
          <mxGeometry relative="1" as="geometry">
            <mxPoint x="240" y="270" as="sourcePoint" />
            <mxPoint x="414" y="270" as="targetPoint" />
            <Array as="points">
              <mxPoint x="275" y="280" />
            </Array>
          </mxGeometry>
        </mxCell>
        <mxCell id="ApNMNNl2spRxYkzGzLZT-21" value="filePath" style="verticalAlign=bottom;endArrow=open;dashed=1;endSize=8;shadow=0;strokeWidth=1;" edge="1" parent="1" source="ApNMNNl2spRxYkzGzLZT-2" target="ApNMNNl2spRxYkzGzLZT-4">
          <mxGeometry relative="1" as="geometry">
            <mxPoint x="414" y="320" as="targetPoint" />
            <mxPoint x="575" y="260" as="sourcePoint" />
            <Array as="points">
              <mxPoint x="390" y="310" />
            </Array>
          </mxGeometry>
        </mxCell>
        <mxCell id="ApNMNNl2spRxYkzGzLZT-22" value="calculateSalary()" style="verticalAlign=bottom;endArrow=block;shadow=0;strokeWidth=1;" edge="1" parent="1">
          <mxGeometry relative="1" as="geometry">
            <mxPoint x="419" y="329.99999999999994" as="sourcePoint" />
            <mxPoint x="575" y="329.99999999999994" as="targetPoint" />
            <Array as="points">
              <mxPoint x="435" y="330" />
            </Array>
          </mxGeometry>
        </mxCell>
        <mxCell id="ApNMNNl2spRxYkzGzLZT-23" value="salary" style="verticalAlign=bottom;endArrow=open;dashed=1;endSize=8;shadow=0;strokeWidth=1;" edge="1" parent="1" source="ApNMNNl2spRxYkzGzLZT-7" target="ApNMNNl2spRxYkzGzLZT-4">
          <mxGeometry relative="1" as="geometry">
            <mxPoint x="419" y="350" as="targetPoint" />
            <mxPoint x="575" y="350" as="sourcePoint" />
            <Array as="points">
              <mxPoint x="530" y="370" />
            </Array>
          </mxGeometry>
        </mxCell>
        <mxCell id="ApNMNNl2spRxYkzGzLZT-24" value="calculatedSalaryPopup()" style="verticalAlign=bottom;endArrow=open;dashed=1;endSize=8;shadow=0;strokeWidth=1;" edge="1" parent="1" source="ApNMNNl2spRxYkzGzLZT-4" target="ApNMNNl2spRxYkzGzLZT-2">
          <mxGeometry relative="1" as="geometry">
            <mxPoint x="250" y="350" as="targetPoint" />
            <mxPoint x="406" y="350" as="sourcePoint" />
            <Array as="points">
              <mxPoint x="361" y="390" />
            </Array>
          </mxGeometry>
        </mxCell>
        <mxCell id="ApNMNNl2spRxYkzGzLZT-26" value="" style="endArrow=none;dashed=1;html=1;" edge="1" parent="1" source="ApNMNNl2spRxYkzGzLZT-8" target="ApNMNNl2spRxYkzGzLZT-7">
          <mxGeometry width="50" height="50" relative="1" as="geometry">
            <mxPoint x="380" y="440" as="sourcePoint" />
            <mxPoint x="430" y="390" as="targetPoint" />
            <Array as="points">
              <mxPoint x="380" y="400" />
            </Array>
          </mxGeometry>
        </mxCell>
        <mxCell id="ApNMNNl2spRxYkzGzLZT-27" value="error" style="verticalAlign=bottom;endArrow=open;dashed=1;endSize=8;shadow=0;strokeWidth=1;" edge="1" parent="1" source="ApNMNNl2spRxYkzGzLZT-7" target="ApNMNNl2spRxYkzGzLZT-4">
          <mxGeometry relative="1" as="geometry">
            <mxPoint x="414" y="430" as="targetPoint" />
            <mxPoint x="570" y="430" as="sourcePoint" />
            <Array as="points">
              <mxPoint x="525" y="430" />
            </Array>
          </mxGeometry>
        </mxCell>
        <mxCell id="ApNMNNl2spRxYkzGzLZT-28" value="calculationFailedPopup()" style="verticalAlign=bottom;endArrow=open;dashed=1;endSize=8;shadow=0;strokeWidth=1;" edge="1" parent="1" source="ApNMNNl2spRxYkzGzLZT-4" target="ApNMNNl2spRxYkzGzLZT-2">
          <mxGeometry relative="1" as="geometry">
            <mxPoint x="240" y="430" as="targetPoint" />
            <mxPoint x="414" y="430" as="sourcePoint" />
            <Array as="points">
              <mxPoint x="366" y="430" />
            </Array>
          </mxGeometry>
        </mxCell>
        <mxCell id="ApNMNNl2spRxYkzGzLZT-30" value="Alt" style="rounded=0;whiteSpace=wrap;html=1;" vertex="1" parent="1">
          <mxGeometry x="20" y="340" width="30" height="20" as="geometry" />
        </mxCell>
        <mxCell id="ApNMNNl2spRxYkzGzLZT-31" value="[calculate succeed]" style="text;html=1;strokeColor=none;fillColor=none;align=center;verticalAlign=middle;whiteSpace=wrap;rounded=0;" vertex="1" parent="1">
          <mxGeometry x="80" y="350" width="110" height="20" as="geometry" />
        </mxCell>
        <mxCell id="ApNMNNl2spRxYkzGzLZT-32" value="[calculate failed]" style="text;html=1;strokeColor=none;fillColor=none;align=center;verticalAlign=middle;whiteSpace=wrap;rounded=0;" vertex="1" parent="1">
          <mxGeometry x="70" y="410" width="110" height="20" as="geometry" />
        </mxCell>
      </root>
    </mxGraphModel>
  </diagram>
</mxfile>
